<?xml version="1.0" encoding="utf-8"?>
<!-- Generator: Adobe Illustrator 20.0.0, SVG Export Plug-In . SVG Version: 6.00 Build 0)  -->
<svg version="1.1" id="Layer_1" xmlns="http://www.w3.org/2000/svg" xmlns:xlink="http://www.w3.org/1999/xlink" x="0px" y="0px"
	 viewBox="0 0 300 300" style="enable-background:new 0 0 300 300;" xml:space="preserve" fill="#fff">
<g>
	<path d="M150,75.2c24,0,26.9,0.1,36.4,0.5c8.8,0.4,13.5,1.9,16.7,3.1c4.2,1.6,7.2,3.6,10.3,6.7c3.1,3.1,5.1,6.1,6.7,10.3
		c1.2,3.2,2.7,7.9,3.1,16.7c0.4,9.5,0.5,12.3,0.5,36.4s-0.1,26.9-0.5,36.4c-0.4,8.8-1.9,13.5-3.1,16.7c-1.6,4.2-3.6,7.2-6.7,10.3
		c-3.1,3.1-6.1,5.1-10.3,6.7c-3.2,1.2-7.9,2.7-16.7,3.1c-9.5,0.4-12.3,0.5-36.4,0.5s-26.9-0.1-36.4-0.5c-8.8-0.4-13.5-1.9-16.7-3.1
		c-4.2-1.6-7.2-3.6-10.3-6.7c-3.1-3.1-5.1-6.1-6.7-10.3c-1.2-3.2-2.7-7.9-3.1-16.7c-0.4-9.5-0.5-12.3-0.5-36.4s0.1-26.9,0.5-36.4
		c0.4-8.8,1.9-13.5,3.1-16.7c1.6-4.2,3.6-7.2,6.7-10.3c3.1-3.1,6.1-5.1,10.3-6.7c3.2-1.2,7.9-2.7,16.7-3.1
		C123.1,75.3,126,75.2,150,75.2 M150,59c-24.4,0-27.5,0.1-37.1,0.5c-9.6,0.4-16.1,2-21.8,4.2c-5.9,2.3-10.9,5.4-15.9,10.4
		c-5,5-8.1,10-10.4,15.9c-2.2,5.7-3.7,12.3-4.2,21.8c-0.4,9.6-0.5,12.7-0.5,37.1c0,24.4,0.1,27.5,0.5,37.1c0.4,9.6,2,16.1,4.2,21.8
		c2.3,5.9,5.4,10.9,10.4,15.9c5,5,10,8.1,15.9,10.4c5.7,2.2,12.3,3.7,21.8,4.2c9.6,0.4,12.7,0.5,37.1,0.5s27.5-0.1,37.1-0.5
		c9.6-0.4,16.1-2,21.8-4.2c5.9-2.3,10.9-5.4,15.9-10.4c5-5,8.1-10,10.4-15.9c2.2-5.7,3.7-12.3,4.2-21.8c0.4-9.6,0.5-12.7,0.5-37.1
		s-0.1-27.5-0.5-37.1c-0.4-9.6-2-16.1-4.2-21.8c-2.3-5.9-5.4-10.9-10.4-15.9c-5-5-10-8.1-15.9-10.4c-5.7-2.2-12.3-3.7-21.8-4.2
		C177.5,59.1,174.4,59,150,59L150,59z"/>
	<path d="M150,102.8c-25.5,0-46.2,20.7-46.2,46.2s20.7,46.2,46.2,46.2s46.2-20.7,46.2-46.2S175.5,102.8,150,102.8z M150,179
		c-16.6,0-30-13.4-30-30s13.4-30,30-30s30,13.4,30,30S166.6,179,150,179z"/>
	<circle cx="198" cy="101" r="10.8"/>
</g>
</svg>
