<?xml version="1.0" encoding="utf-8"?>
<!-- Generator: Adobe Illustrator 19.2.1, SVG Export Plug-In . SVG Version: 6.00 Build 0)  -->
<svg version="1.1" id="Layer_1" xmlns="http://www.w3.org/2000/svg" xmlns:xlink="http://www.w3.org/1999/xlink" x="0px" y="0px"
	 viewBox="0 0 300 300" style="enable-background:new 0 0 300 300;" xml:space="preserve" fill="#fff">
<g>
	<path d="M150,45.2C92.1,45.2,45.2,92.1,45.2,150c0,42.9,25.8,79.8,62.7,96c-0.3-7.3-0.1-16.1,1.8-24.1c2-8.5,13.5-57.1,13.5-57.1
		s-3.3-6.7-3.3-16.6c0-15.5,9-27.1,20.2-27.1c9.5,0,14.1,7.2,14.1,15.7c0,9.6-6.1,23.9-9.3,37.2c-2.6,11.1,5.6,20.2,16.5,20.2
		c19.9,0,33.2-25.5,33.2-55.7c0-23-15.5-40.2-43.6-40.2c-31.8,0-51.6,23.7-51.6,50.2c0,9.1,2.7,15.6,6.9,20.6
		c1.9,2.3,2.2,3.2,1.5,5.8c-0.5,1.9-1.7,6.6-2.1,8.4c-0.7,2.7-2.8,3.6-5.2,2.6c-14.6-6-21.5-22-21.5-40c0-29.8,25.1-65.5,74.9-65.5
		c40,0,66.4,29,66.4,60c0,41.1-22.9,71.8-56.6,71.8c-11.3,0-22-6.1-25.6-13.1c0,0-6.1,24.1-7.4,28.8c-2.2,8.1-6.6,16.2-10.5,22.5
		c9.4,2.8,19.4,4.3,29.7,4.3c57.9,0,104.8-46.9,104.8-104.8C254.8,92.1,207.9,45.2,150,45.2z"/>
</g>
</svg>
