<?xml version="1.0" encoding="utf-8"?>
<!-- Generator: Adobe Illustrator 19.2.1, SVG Export Plug-In . SVG Version: 6.00 Build 0)  -->
<svg version="1.1" id="Layer_1" xmlns="http://www.w3.org/2000/svg" xmlns:xlink="http://www.w3.org/1999/xlink" x="0px" y="0px"
	 viewBox="0 0 300 300" style="enable-background:new 0 0 300 300;" xml:space="preserve" fill="#fff">
<path d="M254.6,85.1c-7.7,3.4-16,5.7-24.7,6.8c8.9-5.3,15.7-13.7,18.9-23.8c-8.3,4.9-17.5,8.5-27.3,10.4c-7.8-8.3-19-13.6-31.3-13.6
	c-23.7,0-42.9,19.2-42.9,42.9c0,3.4,0.4,6.6,1.1,9.8c-35.7-1.8-67.3-18.9-88.5-44.9c-3.7,6.3-5.8,13.7-5.8,21.6
	c0,14.9,7.6,28,19.1,35.7c-7-0.2-13.7-2.2-19.4-5.4c0,0.2,0,0.4,0,0.5c0,20.8,14.8,38.2,34.4,42.1c-3.6,1-7.4,1.5-11.3,1.5
	c-2.8,0-5.5-0.3-8.1-0.8c5.5,17.1,21.3,29.5,40.1,29.8c-14.7,11.5-33.2,18.4-53.3,18.4c-3.5,0-6.9-0.2-10.2-0.6
	c19,12.2,41.6,19.3,65.8,19.3c79,0,122.2-65.4,122.2-122.2c0-1.9,0-3.7-0.1-5.6C241.6,101.3,248.9,93.7,254.6,85.1z"/>
</svg>
